<svg xmlns="http://www.w3.org/2000/svg" xmlns:xlink="http://www.w3.org/1999/xlink" version="1.1" x="0px" y="0px" viewBox="0 0 100 125" style="enable-background:new 0 0 100 100;" xml:space="preserve"><path d="M50.1,98.6c-26.7,0-48.4-21.7-48.4-48.4S23.4,1.8,50.1,1.8s48.4,21.7,48.4,48.4S76.8,98.6,50.1,98.6z M50.1,7.8  c-23.4,0-42.4,19-42.4,42.4c0,23.4,19,42.4,42.4,42.4c23.4,0,42.4-19,42.4-42.4C92.5,26.8,73.5,7.8,50.1,7.8z"/><path d="M74.1,47.6H52.3V25.8c0-1.5-1.2-2.7-2.7-2.7s-2.7,1.2-2.7,2.7v21.8H25.1c-1.5,0-2.7,1.2-2.7,2.7  c0,1.5,1.2,2.7,2.7,2.7h21.8v21.8c0,1.5,1.2,2.7,2.7,2.7s2.7-1.2,2.7-2.7V53h21.8c1.5,0,2.7-1.2,2.7-2.7  C76.8,48.8,75.6,47.6,74.1,47.6z"/><text x="0" y="115" fill="#000000" font-size="5px" font-weight="bold" font-family="'Helvetica Neue', Helvetica, Arial-Unicode, Arial, Sans-serif">Created by Thomas' designs</text><text x="0" y="120" fill="#000000" font-size="5px" font-weight="bold" font-family="'Helvetica Neue', Helvetica, Arial-Unicode, Arial, Sans-serif">from the Noun Project</text></svg>