<svg xmlns="http://www.w3.org/2000/svg" xmlns:xlink="http://www.w3.org/1999/xlink" version="1.1" x="0px" y="0px" viewBox="0 0 100 125" style="enable-background:new 0 0 100 100;" xml:space="preserve"><path d="M50.1,98.4C23.4,98.4,1.7,76.7,1.7,50S23.4,1.6,50.1,1.6S98.4,23.3,98.4,50S76.7,98.4,50.1,98.4z M50.1,7.6  C26.7,7.6,7.7,26.6,7.7,50c0,23.4,19,42.4,42.4,42.4c23.4,0,42.4-19,42.4-42.4C92.5,26.6,73.4,7.6,50.1,7.6z"/><circle cx="50.1" cy="48.8" r="6.4"/><circle cx="69.9" cy="48.8" r="6.4"/><circle cx="30.1" cy="48.8" r="6.4"/><text x="0" y="115" fill="#000000" font-size="5px" font-weight="bold" font-family="'Helvetica Neue', Helvetica, Arial-Unicode, Arial, Sans-serif">Created by Thomas' designs</text><text x="0" y="120" fill="#000000" font-size="5px" font-weight="bold" font-family="'Helvetica Neue', Helvetica, Arial-Unicode, Arial, Sans-serif">from the Noun Project</text></svg>